<svg xmlns="http://www.w3.org/2000/svg" xmlns:xlink="http://www.w3.org/1999/xlink" width="960" height="540"><defs><marker id="x" refX="0" refY="0" orient="auto" overflow="visible"><path d="M4.616 0l-6.92 4v-8l6.92 4z" fill-rule="evenodd" stroke="#000" stroke-width=".8pt"/></marker><marker id="w" refX="0" refY="0" orient="auto" overflow="visible"><path d="M4.616 0l-6.92 4v-8l6.92 4z" fill-rule="evenodd" stroke="#000" stroke-width=".8pt"/></marker><marker orient="auto" refY="0" refX="0" id="v" overflow="visible"><path d="M4.616 0l-6.92 4v-8l6.92 4z" fill-rule="evenodd" stroke="#000" stroke-width=".8pt"/></marker><marker id="l" refX="0" refY="0" orient="auto" overflow="visible"><path d="M4.616 0l-6.92 4v-8l6.92 4z" fill-rule="evenodd" stroke="#000" stroke-width=".8pt"/></marker><marker id="m" refX="0" refY="0" orient="auto" overflow="visible"><path d="M4.616 0l-6.92 4v-8l6.92 4z" fill-rule="evenodd" stroke="#000" stroke-width=".8pt"/></marker><marker orient="auto" refY="0" refX="0" id="u" overflow="visible"><path d="M4.616 0l-6.92 4v-8l6.92 4z" fill-rule="evenodd" stroke="#000" stroke-width=".8pt"/></marker><marker id="n" refX="0" refY="0" orient="auto" overflow="visible"><path d="M4.616 0l-6.92 4v-8l6.92 4z" fill-rule="evenodd" stroke="#000" stroke-width=".8pt"/></marker><marker orient="auto" refY="0" refX="0" id="t" overflow="visible"><path d="M4.616 0l-6.92 4v-8l6.92 4z" fill-rule="evenodd" stroke="#000" stroke-width=".8pt"/></marker><marker orient="auto" refY="0" refX="0" id="s" overflow="visible"><path d="M4.616 0l-6.92 4v-8l6.92 4z" fill-rule="evenodd" stroke="#000" stroke-width=".8pt"/></marker><marker id="r" refX="0" refY="0" orient="auto" overflow="visible"><path d="M4.616 0l-6.92 4v-8l6.92 4z" fill-rule="evenodd" stroke="#000" stroke-width=".8pt"/></marker><marker orient="auto" refY="0" refX="0" id="j" overflow="visible"><path d="M4.616 0l-6.92 4v-8l6.92 4z" fill-rule="evenodd" stroke="#000" stroke-width=".8pt"/></marker><marker orient="auto" refY="0" refX="0" id="i" overflow="visible"><path d="M4.616 0l-6.92 4v-8l6.92 4z" fill-rule="evenodd" stroke="#000" stroke-width=".8pt"/></marker><marker orient="auto" refY="0" refX="0" id="h" overflow="visible"><path d="M4.616 0l-6.92 4v-8l6.92 4z" fill-rule="evenodd" stroke="#000" stroke-width=".8pt"/></marker><marker orient="auto" refY="0" refX="0" id="k" overflow="visible"><path d="M4.616 0l-6.92 4v-8l6.92 4z" fill-rule="evenodd" stroke="#000" stroke-width=".8pt"/></marker><marker id="a" refX="0" refY="0" orient="auto" overflow="visible"><path d="M4.616 0l-6.92 4v-8l6.92 4z" fill-rule="evenodd" stroke="#000" stroke-width=".8pt"/></marker><marker id="b" refX="0" refY="0" orient="auto" overflow="visible"><path d="M4.616 0l-6.92 4v-8l6.92 4z" fill-rule="evenodd" stroke="#000" stroke-width=".8pt"/></marker><marker id="e" refX="0" refY="0" orient="auto" overflow="visible"><path d="M4.616 0l-6.92 4v-8l6.92 4z" fill-rule="evenodd" stroke="#000" stroke-width=".8pt"/></marker><marker id="c" refX="0" refY="0" orient="auto" overflow="visible"><path d="M4.616 0l-6.92 4v-8l6.92 4z" fill-rule="evenodd" stroke="#000" stroke-width=".8pt"/></marker><marker id="d" refX="0" refY="0" orient="auto" overflow="visible"><path d="M4.616 0l-6.92 4v-8l6.92 4z" fill-rule="evenodd" stroke="#000" stroke-width=".8pt"/></marker><marker orient="auto" refY="0" refX="0" id="q" overflow="visible"><path d="M4.616 0l-6.92 4v-8l6.92 4z" fill-rule="evenodd" stroke="#000" stroke-width=".8pt"/></marker><marker id="o" refX="0" refY="0" orient="auto" overflow="visible"><path d="M4.616 0l-6.92 4v-8l6.92 4z" fill-rule="evenodd" stroke="#000" stroke-width=".8pt"/></marker><marker orient="auto" refY="0" refX="0" id="p" overflow="visible"><path d="M4.616 0l-6.92 4v-8l6.92 4z" fill-rule="evenodd" stroke="#000" stroke-width=".8pt"/></marker><marker id="g" refX="0" refY="0" orient="auto" overflow="visible"><path d="M4.616 0l-6.92 4v-8l6.92 4z" fill-rule="evenodd" stroke="#000" stroke-width=".8pt"/></marker><marker orient="auto" refY="0" refX="0" id="f" overflow="visible"><path d="M4.616 0l-6.92 4v-8l6.92 4z" fill-rule="evenodd" stroke="#000" stroke-width=".8pt"/></marker></defs><path transform="skewX(-59.993) scale(1 .5001)" fill="#8787de" stroke="#000" stroke-width="1.414" d="M1157.787 899.655h117.432v63.339h-117.432z"/><path transform="skewX(-59.993) scale(1 .5001)" fill="red" stroke="#000" stroke-width="1.414" d="M548.169 535.458h117.432v63.339H548.169z"/><path transform="skewX(-59.993) scale(1 .5001)" fill="#0071c5" stroke="#000" stroke-width="1.414" d="M857.627 352.577h117.432v63.339H857.627z"/><path transform="skewX(-59.993) scale(1 .5001)" fill="#def3f7" stroke="#000" stroke-width="1.414" d="M360.496 136.371h117.432v63.339H360.496z"/><path d="M99.099 299.461c68.094 33.15 238.017 29.35 376.957 54.88 3.702.68 3.694 10.116 3.694 10.116" fill="none" stroke="#000" stroke-miterlimit="7.661" marker-end="url(#a)"/><path d="M99.099 299.461l100.938 64.996" fill="none" stroke="#000" stroke-miterlimit="7.661" marker-end="url(#b)"/><path d="M99.099 299.461l-39.044 64.996" fill="none" stroke="#000" stroke-miterlimit="7.661" marker-end="url(#c)"/><path d="M99.099 299.461c50.469 32.498 170.713 39.691 227.154 49.721 13.9 2.47 13.765 15.275 13.765 15.275" fill="none" stroke="#000" stroke-miterlimit="7.661" marker-end="url(#d)"/><path d="M99.099 299.461c9.319 6.517 442.97 49.337 515.326 55.38 5.322.444 5.557 9.616 5.557 9.616" fill="none" stroke="#000" stroke-miterlimit="7.661" marker-end="url(#e)"/><path transform="matrix(1.19762 0 0 .62772 -113.548 175.73)" d="M190.261 339.889l-22.652 39.235h-45.304l-22.653-39.235 22.653-39.235h45.304z" fill="none" stroke="#000" stroke-width="1.153"/><path transform="matrix(1.19762 0 0 .62772 26.434 175.73)" d="M190.261 339.889l-22.652 39.235h-45.304l-22.653-39.235 22.653-39.235h45.304z" fill="none" stroke="#000" stroke-width="1.153"/><path transform="matrix(1.19762 0 0 .62772 166.415 175.73)" d="M190.261 339.889l-22.652 39.235h-45.304l-22.653-39.235 22.653-39.235h45.304z" fill="none" stroke="#000" stroke-width="1.153"/><path transform="matrix(1.19762 0 0 .62772 306.397 175.73)" d="M190.261 339.889l-22.652 39.235h-45.304l-22.653-39.235 22.653-39.235h45.304z" fill="none" stroke="#000" stroke-width="1.153"/><path transform="matrix(1.19762 0 0 .62772 446.379 175.73)" d="M190.261 339.889l-22.652 39.235h-45.304l-22.653-39.235 22.653-39.235h45.304z" fill="none" stroke="#000" stroke-width="1.153"/><path transform="matrix(1.19762 0 0 .62772 608.993 69.664)" d="M190.261 339.889l-22.652 39.235h-45.304l-22.653-39.235 22.653-39.235h45.304z" fill="none" stroke="#000" stroke-width="1.153"/><path transform="matrix(1.19762 0 0 .62772 726.342 69.664)" d="M190.261 339.889l-22.652 39.235h-45.304l-22.653-39.235 22.653-39.235h45.304z" fill="none" stroke="#000" stroke-width="1.153"/><path transform="matrix(1.19762 0 0 .62772 491.644 70.267)" d="M190.261 339.889l-22.652 39.235h-45.304l-22.653-39.235 22.653-39.235h45.304z" fill="none" stroke="#000" stroke-width="1.153"/><path transform="matrix(1.19762 0 0 .62772 139.599 70.267)" d="M190.261 339.889l-22.652 39.235h-45.304l-22.653-39.235 22.653-39.235h45.304z" fill="none" stroke="#000" stroke-width="1.153"/><path transform="matrix(1.19762 0 0 .62772 256.947 70.267)" d="M190.261 339.889l-22.652 39.235h-45.304l-22.653-39.235 22.653-39.235h45.304z" fill="none" stroke="#000" stroke-width="1.153"/><path transform="matrix(1.19762 0 0 .62772 374.296 70.267)" d="M190.261 339.889l-22.652 39.235h-45.304l-22.653-39.235 22.653-39.235h45.304z" fill="none" stroke="#000" stroke-width="1.153"/><path d="M340.018 413.715l32.735 29.324" fill="none" stroke="#000" marker-end="url(#f)"/><path d="M480 413.715l-25.737 28.148" fill="none" stroke="#000" marker-end="url(#g)"/><path d="M602.73 208.001l297.215 50.39" fill="none" stroke="#000" marker-end="url(#h)"/><path d="M595.836 208.001l186.76 50.39" fill="none" stroke="#000" marker-end="url(#i)"/><path d="M590.62 208.001l74.628 50.993" fill="none" stroke="#000" marker-end="url(#j)"/><path d="M585.814 208.001l-442.616 59.784" fill="none" stroke="#000" marker-end="url(#k)"/><path d="M901.037 104.897L678.74 172.325" fill="none" stroke="#000" marker-end="url(#l)"/><path d="M799.102 104.897l-162.52 65.928" fill="none" stroke="#000" marker-end="url(#m)"/><path d="M661.698 104.897l-65.935 63.362" fill="none" stroke="#000" marker-end="url(#n)"/><path d="M284.257 99.876l227.574 83.964" fill="none" stroke="#000" marker-end="url(#o)"/><path d="M273.695 44.5v17.639" fill="none" stroke="#000" marker-end="url(#p)"/><ellipse ry="20.86" rx="98.514" cy="84.038" cx="476.294" fill="#fff" stroke="#000" stroke-miterlimit="7.661"/><ellipse cx="661.698" cy="84.038" rx="85.982" ry="20.86" fill="#fff" stroke="#000" stroke-miterlimit="7.661"/><ellipse ry="20.86" rx="50.514" cy="84.038" cx="799.102" fill="#fff" stroke="#000" stroke-miterlimit="7.661"/><ellipse ry="20.86" rx="50.514" cy="84.038" cx="901.037" fill="#fff" stroke="#000" stroke-miterlimit="7.661"/><path transform="skewX(-59.993) scale(1 .5001)" fill="#8dd35f" stroke="#000" stroke-width="1.414" d="M195.033 136.371h117.432v63.339H195.033z"/><path d="M111.041 99.876l384.137 93.342" fill="none" stroke="#000" marker-end="url(#q)"/><path d="M590.62 208.001l-42.72 50.993" fill="none" stroke="#000" marker-end="url(#r)"/><path d="M590.62 208.001l-160.07 50.993" fill="none" stroke="#000" marker-end="url(#s)"/><path d="M590.62 208.001l-277.418 50.993" fill="none" stroke="#000" marker-end="url(#t)"/><path d="M476.294 104.897l70.678 61.656" fill="none" stroke="#000" marker-end="url(#u)"/><path d="M410.01 482.066V496.7" fill="none" stroke="#000" marker-end="url(#v)"/><text y="452.626" x="199.442" style="line-height:125%;-inkscape-font-specification:monospace" font-weight="400" font-size="20" font-family="monospace" letter-spacing="0" word-spacing="0"><tspan style="-inkscape-font-specification:monospace;text-align:center" y="452.626" x="199.442" font-size="12.5" text-anchor="middle">machine code</tspan><tspan style="-inkscape-font-specification:monospace;text-align:center" y="468.251" x="199.442" font-size="12.5" text-anchor="middle">for:</tspan><tspan style="-inkscape-font-specification:monospace;text-align:center" y="483.876" x="199.442" font-size="12.5" text-anchor="middle">all TeraScale GPUs</tspan><tspan style="-inkscape-font-specification:monospace;text-align:center" y="499.501" x="203.201" font-size="12.5" text-anchor="middle">from R600 to Cayman</tspan></text><path d="M190.261 339.889l-22.652 39.235h-45.304l-22.653-39.235 22.653-39.235h45.304z" transform="matrix(.90725 0 0 .4737 278.497 359.114)" fill="none" stroke="#000" stroke-width="1.525"/><text style="line-height:125%;-inkscape-font-specification:'sans-serif, Normal';text-align:start" x="456.01" y="517.979" font-weight="400" font-size="10" font-family="sans-serif" letter-spacing="0" word-spacing="0"><tspan x="456.01" y="517.979">The LLVM code generator is not part of Mesa 3D; it is distributed as part</tspan><tspan x="456.01" y="530.479">of LLVM; radeonsi requires the approriate LLVM version to be installed as well!</tspan></text><path d="M200.037 413.654v14.633" fill="none" stroke="#000" marker-end="url(#w)"/><path d="M273.695 44.5L132.628 65.32" fill="none" stroke="#000" marker-end="url(#x)"/><text y="55.153" x="276.562" style="line-height:125%;-inkscape-font-specification:'sans-serif, Normal';text-align:start" font-weight="400" font-size="10" font-family="sans-serif" letter-spacing="0" word-spacing="0"><tspan y="55.153" x="276.562">Translation takes place on end user&apos;s computer</tspan></text><text style="line-height:125%;-inkscape-font-specification:'sans-serif, Normal';text-align:start" x="4.434" y="56.324" font-weight="400" font-size="10" font-family="sans-serif" letter-spacing="0" word-spacing="0"><tspan x="4.434" y="56.324">Translation takes place on developer&apos;s computer</tspan></text><path d="M56.034 44.5L81.83 64.325" fill="none" stroke="#000" marker-end="url(#p)"/><text y="111.645" x="8.55" style="line-height:125%;-inkscape-font-specification:'sans-serif, Normal';text-align:start" font-weight="400" font-size="10" font-family="sans-serif" letter-spacing="0" word-spacing="0"><tspan y="111.645" x="8.55">Distributed as SPIR-V</tspan></text><rect id="y" width="129" height="39" x="5.5" y="5.5" rx="20" ry="20" opacity="1" fill="#8dd35f" fill-opacity="1" stroke="#000" stroke-width="1" stroke-miterlimit="4" stroke-dasharray="none" stroke-opacity="1"/><use xlink:href="#y" transform="translate(203.695)" width="100%" height="100%"/><path d="M899.945 307.649c-9.319 6.516-122.376 150.438-194.732 156.48-5.322.445-236.488 1.63-236.488 1.63" fill="none" stroke="#000" stroke-miterlimit="7.661" marker-end="url(#e)"/><g letter-spacing="0" word-spacing="0"><text style="line-height:125%;-inkscape-font-specification:'sans-serif Bold Italic'" x="584.234" y="199.453" font-style="italic" font-weight="700" font-size="20" font-family="sans-serif"><tspan x="584.234" y="199.453" style="-inkscape-font-specification:'sans-serif Bold Italic';text-align:center" text-anchor="middle">NIR</tspan></text><text y="29.793" x="469.366" style="line-height:125%" font-weight="400" font-size="40" font-family="sans-serif"><tspan y="29.793" x="469.366" font-size="30">Mesa compilation stack (2016+)</tspan></text><text y="24.379" x="273.487" style="line-height:125%" font-weight="400" font-size="20" font-family="sans-serif"><tspan style="text-align:center" y="24.379" x="273.487" text-anchor="middle">Shaders</tspan><tspan style="text-align:center" y="40.657" x="273.487" font-size="11.25" text-anchor="middle">written in GLSL</tspan></text><text style="line-height:125%;-inkscape-font-specification:'sans-serif Bold Italic'" x="274.179" y="91.318" font-style="italic" font-weight="700" font-size="20" font-family="sans-serif"><tspan x="274.179" y="91.318" style="-inkscape-font-specification:'sans-serif Bold Italic';text-align:center" text-anchor="middle">GLSL IR</tspan></text><text style="line-height:125%;-inkscape-font-specification:'sans-serif Bold Italic'" x="115.515" y="290.903" font-style="italic" font-weight="700" font-size="20" font-family="sans-serif"><tspan x="115.515" y="290.903" style="-inkscape-font-specification:'sans-serif Bold Italic';text-align:center" text-anchor="middle">TGSI</tspan></text><text y="473.05" x="410.644" style="line-height:125%;-inkscape-font-specification:'sans-serif Bold Italic'" font-style="italic" font-weight="700" font-size="20" font-family="sans-serif"><tspan style="-inkscape-font-specification:'sans-serif Bold Italic';text-align:center" y="473.05" x="410.644" text-anchor="middle">LLVM IR</tspan></text><text y="291.079" x="548.867" style="line-height:125%;-inkscape-font-specification:monospace" font-weight="400" font-size="20" font-family="monospace"><tspan style="-inkscape-font-specification:monospace;text-align:center" y="291.079" x="548.867" text-anchor="middle">i965</tspan></text><text style="line-height:125%;-inkscape-font-specification:monospace" x="59.215" y="394.36" font-weight="400" font-size="20" font-family="monospace"><tspan x="59.215" y="394.36" style="-inkscape-font-specification:monospace;text-align:center" text-anchor="middle">r300g</tspan></text><text y="394.36" x="199.197" style="line-height:125%;-inkscape-font-specification:monospace" font-weight="400" font-size="20" font-family="monospace"><tspan style="-inkscape-font-specification:monospace;text-align:center" y="394.36" x="199.197" text-anchor="middle">r600g</tspan></text><text style="line-height:125%;-inkscape-font-specification:monospace" x="479.805" y="394.657" font-weight="400" font-size="20" font-family="monospace"><tspan x="479.805" y="394.657" style="-inkscape-font-specification:monospace;text-align:center" text-anchor="middle">llvmpipe</tspan></text><text y="396.542" x="338.934" style="line-height:125%;-inkscape-font-specification:monospace" font-weight="400" font-size="20" font-family="monospace"><tspan style="-inkscape-font-specification:monospace;text-align:center" y="396.542" x="338.934" text-anchor="middle">radeonsi</tspan></text><text style="line-height:125%;-inkscape-font-specification:monospace" x="619.913" y="394.545" font-weight="400" font-size="20" font-family="monospace"><tspan x="619.913" y="394.545" style="-inkscape-font-specification:monospace;text-align:center" text-anchor="middle">nouveau</tspan></text><text y="290.169" x="666.275" style="line-height:125%;-inkscape-font-specification:monospace" font-weight="400" font-size="20" font-family="monospace"><tspan style="-inkscape-font-specification:monospace;text-align:center" y="290.169" x="666.275" text-anchor="middle">vc4</tspan></text><text style="line-height:125%;-inkscape-font-specification:monospace" x="783.35" y="290.476" font-weight="400" font-size="20" font-family="monospace"><tspan x="783.35" y="290.476" style="-inkscape-font-specification:monospace;text-align:center" text-anchor="middle">freedreno</tspan></text><text y="290.503" x="431.528" style="line-height:125%;-inkscape-font-specification:monospace" font-weight="400" font-size="20" font-family="monospace"><tspan style="-inkscape-font-specification:monospace;text-align:center" y="290.503" x="431.528" text-anchor="middle">swrast</tspan></text><text style="line-height:125%;-inkscape-font-specification:monospace" x="314.17" y="291.079" font-weight="400" font-size="20" font-family="monospace"><tspan x="314.17" y="291.079" style="-inkscape-font-specification:monospace;text-align:center" text-anchor="middle">i915</tspan></text><text style="line-height:125%" x="476.597" y="89.555" font-weight="400" font-size="20" font-family="sans-serif"><tspan x="476.597" y="89.555" style="text-align:center" text-anchor="middle">fragment pipeline</tspan></text><text y="89.555" x="661.933" style="line-height:125%" font-weight="400" font-size="20" font-family="sans-serif"><tspan style="text-align:center" y="89.555" x="661.933" text-anchor="middle">vertex pipeline</tspan></text><text style="line-height:125%" x="799.571" y="89.248" font-weight="400" font-size="20" font-family="sans-serif"><tspan x="799.571" y="89.248" style="text-align:center" text-anchor="middle">ARB vp</tspan></text><text y="89.555" x="901.506" style="line-height:125%" font-weight="400" font-size="20" font-family="sans-serif"><tspan style="text-align:center" y="89.555" x="901.506" text-anchor="middle">ARB fp</tspan></text><text y="91.318" x="107.417" style="line-height:125%;-inkscape-font-specification:'sans-serif Bold Italic'" font-style="italic" font-weight="700" font-size="20" font-family="sans-serif"><tspan style="-inkscape-font-specification:'sans-serif Bold Italic';text-align:center" y="91.318" x="107.417" text-anchor="middle">SPIR-V</tspan></text><text y="527.41" x="409.384" style="line-height:125%;-inkscape-font-specification:monospace" font-weight="400" font-size="20" font-family="monospace"><tspan style="-inkscape-font-specification:monospace;text-align:center" y="527.41" x="409.384" text-anchor="middle">LLVM</tspan></text><text y="290.476" x="898.661" style="line-height:125%;-inkscape-font-specification:monospace" font-weight="400" font-size="20" font-family="monospace"><tspan style="-inkscape-font-specification:monospace;text-align:center" y="290.476" x="898.661" text-anchor="middle">radv</tspan></text><text style="line-height:125%" x="69.791" y="24.379" font-weight="400" font-size="20" font-family="sans-serif"><tspan x="69.791" y="24.379" style="text-align:center" text-anchor="middle">Shaders</tspan><tspan x="69.791" y="40.657" style="text-align:center" font-size="11.25" text-anchor="middle">written in HLSL</tspan></text></g></svg>