<svg xmlns="http://www.w3.org/2000/svg" xmlns:xlink="http://www.w3.org/1999/xlink" id="processonSvg1000" viewBox="235.01171875 60.0 1129.98828125 911.76171875" width="1129.98828125" height="911.76171875"><defs id="ProcessOnDefs1001"><marker id="ProcessOnMarker1031" markerUnits="userSpaceOnUse" orient="auto" markerWidth="16.23606797749979" markerHeight="10.550836550532098" viewBox="-1.0 -1.3763819204711736 16.23606797749979 10.550836550532098" refX="-1.0" refY="3.8990363547948754"><path id="ProcessOnPath1032" d="M12.0 3.8990363547948754L0.0 7.798072709589751V0.0Z" stroke="#323232" stroke-width="2.0" fill="#323232" transform="matrix(1.0,0.0,0.0,1.0,0.0,0.0)"/></marker><marker id="ProcessOnMarker1035" markerUnits="userSpaceOnUse" orient="auto" markerWidth="16.23606797749979" markerHeight="10.550836550532098" viewBox="-1.0 -1.3763819204711736 16.23606797749979 10.550836550532098" refX="-1.0" refY="3.8990363547948754"><path id="ProcessOnPath1036" d="M12.0 3.8990363547948754L0.0 7.798072709589751V0.0Z" stroke="#323232" stroke-width="2.0" fill="#323232" transform="matrix(1.0,0.0,0.0,1.0,0.0,0.0)"/></marker><marker id="ProcessOnMarker1042" markerUnits="userSpaceOnUse" orient="auto" markerWidth="16.23606797749979" markerHeight="10.550836550532098" viewBox="-1.0 -1.3763819204711736 16.23606797749979 10.550836550532098" refX="-1.0" refY="3.8990363547948754"><path id="ProcessOnPath1043" d="M12.0 3.8990363547948754L0.0 7.798072709589751V0.0Z" stroke="#323232" stroke-width="2.0" fill="#323232" transform="matrix(1.0,0.0,0.0,1.0,0.0,0.0)"/></marker><marker id="ProcessOnMarker1050" markerUnits="userSpaceOnUse" orient="auto" markerWidth="16.23606797749979" markerHeight="10.550836550532098" viewBox="-1.0 -1.3763819204711736 16.23606797749979 10.550836550532098" refX="-1.0" refY="3.8990363547948754"><path id="ProcessOnPath1051" d="M12.0 3.8990363547948754L0.0 7.798072709589751V0.0Z" stroke="#0000ff" stroke-width="2.0" fill="#0000ff" transform="matrix(1.0,0.0,0.0,1.0,0.0,0.0)"/></marker><marker id="ProcessOnMarker1057" markerUnits="userSpaceOnUse" orient="auto" markerWidth="16.23606797749979" markerHeight="10.550836550532098" viewBox="-1.0 -1.3763819204711736 16.23606797749979 10.550836550532098" refX="-1.0" refY="3.8990363547948754"><path id="ProcessOnPath1058" d="M12.0 3.8990363547948754L0.0 7.798072709589751V0.0Z" stroke="#0000ff" stroke-width="2.0" fill="#0000ff" transform="matrix(1.0,0.0,0.0,1.0,0.0,0.0)"/></marker><marker id="ProcessOnMarker1080" markerUnits="userSpaceOnUse" orient="auto" markerWidth="16.23606797749979" markerHeight="10.550836550532098" viewBox="-1.0 -1.3763819204711736 16.23606797749979 10.550836550532098" refX="-1.0" refY="3.8990363547948754"><path id="ProcessOnPath1081" d="M12.0 3.8990363547948754L0.0 7.798072709589751V0.0Z" stroke="#323232" stroke-width="2.0" fill="#323232" transform="matrix(1.0,0.0,0.0,1.0,0.0,0.0)"/></marker><marker id="ProcessOnMarker1100" markerUnits="userSpaceOnUse" orient="auto" markerWidth="16.23606797749979" markerHeight="10.550836550532098" viewBox="-1.0 -1.3763819204711736 16.23606797749979 10.550836550532098" refX="-1.0" refY="3.8990363547948754"><path id="ProcessOnPath1101" d="M12.0 3.8990363547948754L0.0 7.798072709589751V0.0Z" stroke="#0000ff" stroke-width="2.0" fill="#0000ff" transform="matrix(1.0,0.0,0.0,1.0,0.0,0.0)"/></marker><marker id="ProcessOnMarker1104" markerUnits="userSpaceOnUse" orient="auto" markerWidth="16.23606797749979" markerHeight="10.550836550532098" viewBox="-1.0 -1.3763819204711736 16.23606797749979 10.550836550532098" refX="-1.0" refY="3.8990363547948754"><path id="ProcessOnPath1105" d="M12.0 3.8990363547948754L0.0 7.798072709589751V0.0Z" stroke="#323232" stroke-width="2.0" fill="#323232" transform="matrix(1.0,0.0,0.0,1.0,0.0,0.0)"/></marker><marker id="ProcessOnMarker1136" markerUnits="userSpaceOnUse" orient="auto" markerWidth="16.23606797749979" markerHeight="10.550836550532098" viewBox="-1.0 -1.3763819204711736 16.23606797749979 10.550836550532098" refX="-1.0" refY="3.8990363547948754"><path id="ProcessOnPath1137" d="M12.0 3.8990363547948754L0.0 7.798072709589751V0.0Z" stroke="#0000ff" stroke-width="2.0" fill="#0000ff" transform="matrix(1.0,0.0,0.0,1.0,0.0,0.0)"/></marker><marker id="ProcessOnMarker1143" markerUnits="userSpaceOnUse" orient="auto" markerWidth="20.609529741924973" markerHeight="10.888175666885001" viewBox="-2.3047648709624866 -1.5914908829822711 20.609529741924973 10.888175666885001" refX="16.0" refY="3.8525969504602293"><path id="ProcessOnPath1144" d="M0 3.8525969504602293L8.0 0L16.0 3.8525969504602293L8.0 7.705193900920459Z" stroke="#323232" stroke-width="2.0" fill="#fff"/></marker><marker id="ProcessOnMarker1145" markerUnits="userSpaceOnUse" orient="auto" markerWidth="20.609529741924973" markerHeight="10.888175666885001" viewBox="-2.3047648709624866 -1.5914908829822711 20.609529741924973 10.888175666885001" refX="0.0" refY="3.8525969504602293"><path id="ProcessOnPath1146" d="M0 3.8525969504602293L8.0 0L16.0 3.8525969504602293L8.0 7.705193900920459Z" stroke="#323232" stroke-width="2.0" fill="#fff"/></marker><marker id="ProcessOnMarker1149" markerUnits="userSpaceOnUse" orient="auto" markerWidth="10.0" markerHeight="10.0" viewBox="-1.0 -1.0 10.0 10.0" refX="0.0" refY="4.0"><path id="ProcessOnPath1150" d="M0 4.0A4.0 4.0 0 0 1 4.0 0A4.0 4.0 0 1 1 0 4.0" stroke="#323232" stroke-width="2.0" fill="#323232"/></marker><marker id="ProcessOnMarker1157" markerUnits="userSpaceOnUse" orient="auto" markerWidth="16.23606797749979" markerHeight="10.550836550532098" viewBox="-1.0 -1.3763819204711736 16.23606797749979 10.550836550532098" refX="-1.0" refY="3.8990363547948754"><path id="ProcessOnPath1158" d="M12.0 3.8990363547948754L0.0 7.798072709589751V0.0Z" stroke="#323232" stroke-width="2.0" fill="#fff" transform="matrix(1.0,0.0,0.0,1.0,0.0,0.0)"/></marker><marker id="ProcessOnMarker1165" markerUnits="userSpaceOnUse" orient="auto" markerWidth="16.23606797749979" markerHeight="10.550836550532098" viewBox="-1.0 -1.3763819204711736 16.23606797749979 10.550836550532098" refX="-1.0" refY="3.8990363547948754"><path id="ProcessOnPath1166" d="M12.0 3.8990363547948754L0.0 7.798072709589751V0.0Z" stroke="#323232" stroke-width="2.0" fill="#fff" transform="matrix(1.0,0.0,0.0,1.0,0.0,0.0)"/></marker><marker id="ProcessOnMarker1205" markerUnits="userSpaceOnUse" orient="auto" markerWidth="16.23606797749979" markerHeight="10.550836550532098" viewBox="-1.0 -1.3763819204711736 16.23606797749979 10.550836550532098" refX="-1.0" refY="3.8990363547948754"><path id="ProcessOnPath1206" d="M12.0 3.8990363547948754L0.0 7.798072709589751V0.0Z" stroke="#323232" stroke-width="2.0" fill="#fff" transform="matrix(1.0,0.0,0.0,1.0,0.0,0.0)"/></marker><marker id="ProcessOnMarker1209" markerUnits="userSpaceOnUse" orient="auto" markerWidth="16.23606797749979" markerHeight="10.550836550532098" viewBox="-1.0 -1.3763819204711736 16.23606797749979 10.550836550532098" refX="-1.0" refY="3.8990363547948754"><path id="ProcessOnPath1210" d="M12.0 3.8990363547948754L0.0 7.798072709589751V0.0Z" stroke="#323232" stroke-width="2.0" fill="#fff" transform="matrix(1.0,0.0,0.0,1.0,0.0,0.0)"/></marker></defs><g id="ProcessOnG1002"><path id="ProcessOnPath1003" d="M235.01171875 60.0H1365.0V971.76171875H235.01171875V60.0Z" fill="#ffffff"/><g id="ProcessOnG1004"><g id="ProcessOnG1005" transform="matrix(6.123233995736766E-17,1.0,-1.0,6.123233995736766E-17,784.2500000000001,119.0)" opacity="1.0"><path id="ProcessOnPath1006" d="M18.0 0.0Q9.0 0.0 9.0 9.0L9.0 54.25000000000004Q9.0 63.25000000000004 0.0 63.25000000000004Q9.0 63.25000000000004 9.0 72.25000000000004L9.0 117.50000000000009Q9.0 126.50000000000009 18.0 126.50000000000009" stroke="#323232" stroke-width="2.0" stroke-dasharray="none" opacity="1.0" fill="none"/><path id="ProcessOnPath1007" d="M314.0 126.50000000000009Q323.0 126.50000000000009 323.0 117.50000000000009L323.0 72.25000000000004Q323.0 63.25000000000004 332.0 63.25000000000004Q323.0 63.25000000000004 323.0 54.25000000000004L323.0 9.0Q323.0 0.0 314.0 0.0" stroke="#323232" stroke-width="2.0" stroke-dasharray="none" opacity="1.0" fill="none"/><path id="ProcessOnPath1008" d="M0.0 0.0L332.0 0.0L332.0 126.50000000000009L0.0 126.50000000000009Z" stroke="none" stroke-width="0.0" stroke-dasharray="none" opacity="1.0" fill="none"/></g><g id="ProcessOnG1009" transform="matrix(1.0,0.0,0.0,1.0,295.0,168.0)" opacity="1.0"><path id="ProcessOnPath1010" d="M0.0 0.0L88.0 0.0L88.0 42.0L0.0 42.0Z" stroke="#323232" stroke-width="2.0" stroke-dasharray="none" opacity="1.0" fill="#ffffff"/><g id="ProcessOnG1011" transform="matrix(1.0,0.0,0.0,1.0,10.0,12.875)"><text id="ProcessOnText1012" fill="#000000" font-size="13" x="33.0" y="13.325" font-family="微软雅黑" font-weight="normal" font-style="normal" text-decoration="none" family="微软雅黑" text-anchor="middle" size="13">视频编码器</text></g></g><g id="ProcessOnG1013" transform="matrix(1.0,0.0,0.0,1.0,295.0,247.0)" opacity="1.0"><path id="ProcessOnPath1014" d="M0.0 0.0L88.0 0.0L88.0 42.0L0.0 42.0Z" stroke="#323232" stroke-width="2.0" stroke-dasharray="none" opacity="1.0" fill="#ffffff"/><g id="ProcessOnG1015" transform="matrix(1.0,0.0,0.0,1.0,10.0,12.875)"><text id="ProcessOnText1016" fill="#000000" font-size="13" x="33.0" y="13.325" font-family="微软雅黑" font-weight="normal" font-style="normal" text-decoration="none" family="微软雅黑" text-anchor="middle" size="13">音频编码器</text></g></g><g id="ProcessOnG1017" transform="matrix(1.0,0.0,0.0,1.0,676.0,137.5)" opacity="1.0"><path id="ProcessOnPath1018" d="M0.0 0.0L82.0 0.0L82.0 99.0L0.0 99.0Z" stroke="#323232" stroke-width="2.0" stroke-dasharray="none" opacity="1.0" fill="#ffffff"/><g id="ProcessOnG1019" transform="matrix(1.0,0.0,0.0,1.0,10.0,41.375)"><text id="ProcessOnText1020" fill="#000000" font-size="13" x="30.0" y="13.325" font-family="微软雅黑" font-weight="normal" font-style="normal" text-decoration="none" family="微软雅黑" text-anchor="middle" size="13">PS复用器</text></g></g><g id="ProcessOnG1021" transform="matrix(1.0,0.0,0.0,1.0,441.0,168.0)" opacity="1.0"><path id="ProcessOnPath1022" d="M0.0 0.0L88.0 0.0L88.0 42.0L0.0 42.0Z" stroke="#323232" stroke-width="2.0" stroke-dasharray="none" opacity="1.0" fill="#ffffff"/><g id="ProcessOnG1023" transform="matrix(1.0,0.0,0.0,1.0,10.0,12.875)"><text id="ProcessOnText1024" fill="#000000" font-size="13" x="33.0" y="13.325" font-family="微软雅黑" font-weight="normal" font-style="normal" text-decoration="none" family="微软雅黑" text-anchor="middle" size="13">PES打包器</text></g></g><g id="ProcessOnG1025" transform="matrix(1.0,0.0,0.0,1.0,441.0,247.0)" opacity="1.0"><path id="ProcessOnPath1026" d="M0.0 0.0L88.0 0.0L88.0 42.0L0.0 42.0Z" stroke="#323232" stroke-width="2.0" stroke-dasharray="none" opacity="1.0" fill="#ffffff"/><g id="ProcessOnG1027" transform="matrix(1.0,0.0,0.0,1.0,10.0,12.875)"><text id="ProcessOnText1028" fill="#000000" font-size="13" x="33.0" y="13.325" font-family="微软雅黑" font-weight="normal" font-style="normal" text-decoration="none" family="微软雅黑" text-anchor="middle" size="13">PES打包器</text></g></g><g id="ProcessOnG1029"><path id="ProcessOnPath1030" d="M383.0 189.0L412.0 189.0L412.0 189.0L425.7639320225002 189.0" stroke="#323232" stroke-width="2.0" stroke-dasharray="none" fill="none" marker-end="url(#ProcessOnMarker1031)"/></g><g id="ProcessOnG1033"><path id="ProcessOnPath1034" d="M529.0 189.0L602.5 189.0L602.5 187.0L660.7639320225002 187.0" stroke="#323232" stroke-width="2.0" stroke-dasharray="none" fill="none" marker-end="url(#ProcessOnMarker1035)"/><g id="ProcessOnG1037" transform="matrix(1.0,0.0,0.0,1.0,595.8819660112501,180.875)"><path id="ProcessOnPath1038" d="M0 0H49.0V16.25H0Z" fill="#fff" transform="matrix(1.0,0.0,0.0,1.0,-24.5,0.0)"/><text id="ProcessOnText1039" fill="#ff0000" font-size="13" x="0.0" y="13.325" font-family="微软雅黑" font-weight="normal" font-style="normal" text-decoration="none" family="微软雅黑" text-anchor="middle" size="13">视频PES</text></g></g><g id="ProcessOnG1040"><path id="ProcessOnPath1041" d="M529.0 268.0L717.0 268.0L717.0 251.7360679774998" stroke="#323232" stroke-width="2.0" stroke-dasharray="none" fill="none" marker-end="url(#ProcessOnMarker1042)"/></g><g id="ProcessOnG1044" transform="matrix(1.0,0.0,0.0,1.0,676.0,296.5)" opacity="1.0"><path id="ProcessOnPath1045" d="M0.0 0.0L82.0 0.0L82.0 99.0L0.0 99.0Z" stroke="#0000ff" stroke-width="2.0" stroke-dasharray="none" opacity="1.0" fill="#ffffff"/><g id="ProcessOnG1046" transform="matrix(1.0,0.0,0.0,1.0,10.0,41.375)"><text id="ProcessOnText1047" fill="#000000" font-size="13" x="30.0" y="13.325" font-family="微软雅黑" font-weight="normal" font-style="normal" text-decoration="none" family="微软雅黑" text-anchor="middle" size="13">TS复用器</text></g></g><g id="ProcessOnG1048"><path id="ProcessOnPath1049" d="M529.0 268.0L717.0 268.0L717.0 281.2639320225002" stroke="#0000ff" stroke-width="2.0" stroke-dasharray="none" fill="none" marker-end="url(#ProcessOnMarker1050)"/><g id="ProcessOnG1052" transform="matrix(1.0,0.0,0.0,1.0,629.6319660112501,259.875)"><path id="ProcessOnPath1053" d="M0 0H49.0V16.25H0Z" fill="#fff" transform="matrix(1.0,0.0,0.0,1.0,-24.5,0.0)"/><text id="ProcessOnText1054" fill="#000000" font-size="13" x="0.0" y="13.325" font-family="微软雅黑" font-weight="normal" font-style="normal" text-decoration="none" family="微软雅黑" text-anchor="middle" size="13">音频PES</text></g></g><g id="ProcessOnG1055"><path id="ProcessOnPath1056" d="M529.0 189.0L571.5 189.0L571.5 346.0L660.7639320225002 346.0" stroke="#0000ff" stroke-width="2.0" stroke-dasharray="none" fill="none" marker-end="url(#ProcessOnMarker1057)"/><g id="ProcessOnG1059" transform="matrix(1.0,0.0,0.0,1.0,571.5,282.7569660112501)"><path id="ProcessOnPath1060" d="M0 0H49.0V16.25H0Z" fill="#fff" transform="matrix(1.0,0.0,0.0,1.0,-24.5,0.0)"/><text id="ProcessOnText1061" fill="#000000" font-size="13" x="0.0" y="13.325" font-family="微软雅黑" font-weight="normal" font-style="normal" text-decoration="none" family="微软雅黑" text-anchor="middle" size="13">视频PES</text></g></g><g id="ProcessOnG1062" transform="matrix(1.0,0.0,0.0,1.0,835.0,172.5)" opacity="1.0"><path id="ProcessOnPath1063" d="M0.0 0.0L52.0 0.0L52.0 29.0L0.0 29.0Z" stroke="#323232" stroke-width="2.0" stroke-dasharray="none" opacity="1.0" fill="#ffffff"/><g id="ProcessOnG1064" transform="matrix(1.0,0.0,0.0,1.0,10.0,6.375)"><text id="ProcessOnText1065" fill="#000000" font-size="13" x="15.0" y="13.325" font-family="微软雅黑" font-weight="normal" font-style="normal" text-decoration="none" family="微软雅黑" text-anchor="middle" size="13">PS包</text></g></g><g id="ProcessOnG1066" transform="matrix(1.0,0.0,0.0,1.0,887.0,172.5)" opacity="1.0"><path id="ProcessOnPath1067" d="M0.0 0.0L52.0 0.0L52.0 29.0L0.0 29.0Z" stroke="#323232" stroke-width="2.0" stroke-dasharray="none" opacity="1.0" fill="#ffffff"/><g id="ProcessOnG1068" transform="matrix(1.0,0.0,0.0,1.0,10.0,6.375)"><text id="ProcessOnText1069" fill="#000000" font-size="13" x="15.0" y="13.325" font-family="微软雅黑" font-weight="normal" font-style="normal" text-decoration="none" family="微软雅黑" text-anchor="middle" size="13">PS包</text></g></g><g id="ProcessOnG1070" transform="matrix(1.0,0.0,0.0,1.0,939.0,172.5)" opacity="1.0"><path id="ProcessOnPath1071" d="M0.0 0.0L52.0 0.0L52.0 29.0L0.0 29.0Z" stroke="#323232" stroke-width="2.0" stroke-dasharray="none" opacity="1.0" fill="#ffffff"/><g id="ProcessOnG1072" transform="matrix(1.0,0.0,0.0,1.0,10.0,6.375)"><text id="ProcessOnText1073" fill="#000000" font-size="13" x="15.0" y="13.325" font-family="微软雅黑" font-weight="normal" font-style="normal" text-decoration="none" family="微软雅黑" text-anchor="middle" size="13">PS包</text></g></g><g id="ProcessOnG1074" transform="matrix(1.0,0.0,0.0,1.0,991.0,172.5)" opacity="1.0"><path id="ProcessOnPath1075" d="M0.0 0.0L52.0 0.0L52.0 29.0L0.0 29.0Z" stroke="#323232" stroke-width="2.0" stroke-dasharray="none" opacity="1.0" fill="#ffffff"/><g id="ProcessOnG1076" transform="matrix(1.0,0.0,0.0,1.0,10.0,6.375)"><text id="ProcessOnText1077" fill="#000000" font-size="13" x="15.0" y="13.325" font-family="微软雅黑" font-weight="normal" font-style="normal" text-decoration="none" family="微软雅黑" text-anchor="middle" size="13">PS包</text></g></g><g id="ProcessOnG1078"><path id="ProcessOnPath1079" d="M758.0 187.0L796.5 187.0L796.5 187.0L819.7639320225002 187.0" stroke="#323232" stroke-width="2.0" stroke-dasharray="none" fill="none" marker-end="url(#ProcessOnMarker1080)"/></g><g id="ProcessOnG1082" transform="matrix(1.0,0.0,0.0,1.0,835.0,331.5)" opacity="1.0"><path id="ProcessOnPath1083" d="M0.0 0.0L52.0 0.0L52.0 29.0L0.0 29.0Z" stroke="#3333ff" stroke-width="2.0" stroke-dasharray="none" opacity="1.0" fill="#ffffff"/><g id="ProcessOnG1084" transform="matrix(1.0,0.0,0.0,1.0,10.0,6.375)"><text id="ProcessOnText1085" fill="#000000" font-size="13" x="15.0" y="13.325" font-family="微软雅黑" font-weight="normal" font-style="normal" text-decoration="none" family="微软雅黑" text-anchor="middle" size="13">TS包</text></g></g><g id="ProcessOnG1086" transform="matrix(1.0,0.0,0.0,1.0,887.0,331.5)" opacity="1.0"><path id="ProcessOnPath1087" d="M0.0 0.0L52.0 0.0L52.0 29.0L0.0 29.0Z" stroke="#3333ff" stroke-width="2.0" stroke-dasharray="none" opacity="1.0" fill="#ffffff"/><g id="ProcessOnG1088" transform="matrix(1.0,0.0,0.0,1.0,10.0,6.375)"><text id="ProcessOnText1089" fill="#000000" font-size="13" x="15.0" y="13.325" font-family="微软雅黑" font-weight="normal" font-style="normal" text-decoration="none" family="微软雅黑" text-anchor="middle" size="13">TS包</text></g></g><g id="ProcessOnG1090" transform="matrix(1.0,0.0,0.0,1.0,939.0,331.5)" opacity="1.0"><path id="ProcessOnPath1091" d="M0.0 0.0L52.0 0.0L52.0 29.0L0.0 29.0Z" stroke="#3333ff" stroke-width="2.0" stroke-dasharray="none" opacity="1.0" fill="#ffffff"/><g id="ProcessOnG1092" transform="matrix(1.0,0.0,0.0,1.0,10.0,6.375)"><text id="ProcessOnText1093" fill="#000000" font-size="13" x="15.0" y="13.325" font-family="微软雅黑" font-weight="normal" font-style="normal" text-decoration="none" family="微软雅黑" text-anchor="middle" size="13">TS包</text></g></g><g id="ProcessOnG1094" transform="matrix(1.0,0.0,0.0,1.0,991.0,331.5)" opacity="1.0"><path id="ProcessOnPath1095" d="M0.0 0.0L52.0 0.0L52.0 29.0L0.0 29.0Z" stroke="#3333ff" stroke-width="2.0" stroke-dasharray="none" opacity="1.0" fill="#ffffff"/><g id="ProcessOnG1096" transform="matrix(1.0,0.0,0.0,1.0,10.0,6.375)"><text id="ProcessOnText1097" fill="#000000" font-size="13" x="15.0" y="13.325" font-family="微软雅黑" font-weight="normal" font-style="normal" text-decoration="none" family="微软雅黑" text-anchor="middle" size="13">TS包</text></g></g><g id="ProcessOnG1098"><path id="ProcessOnPath1099" d="M758.0 346.0L796.5 346.0L796.5 346.0L819.7639320225002 346.0" stroke="#0000ff" stroke-width="2.0" stroke-dasharray="none" fill="none" marker-end="url(#ProcessOnMarker1100)"/></g><g id="ProcessOnG1102"><path id="ProcessOnPath1103" d="M383.0 268.0L412.0 268.0L412.0 268.0L425.7639320225002 268.0" stroke="#323232" stroke-width="2.0" stroke-dasharray="none" fill="none" marker-end="url(#ProcessOnMarker1104)"/></g><g id="ProcessOnG1106" transform="matrix(1.0,0.0,0.0,1.0,781.0,132.5)" opacity="1.0"><path id="ProcessOnPath1107" d="M0.0 0.0L160.0 0.0L160.0 40.0L0.0 40.0Z" stroke="none" stroke-width="0.0" stroke-dasharray="none" opacity="1.0" fill="none"/><g id="ProcessOnG1108" transform="matrix(1.0,0.0,0.0,1.0,0.0,11.875)"><text id="ProcessOnText1109" fill="#ff0000" font-size="13" x="79.0" y="13.325" font-family="微软雅黑" font-weight="normal" font-style="normal" text-decoration="none" family="微软雅黑" text-anchor="middle" size="13">PS流</text></g></g><g id="ProcessOnG1110" transform="matrix(1.0,0.0,0.0,1.0,784.0,291.5)" opacity="1.0"><path id="ProcessOnPath1111" d="M0.0 0.0L160.0 0.0L160.0 40.0L0.0 40.0Z" stroke="none" stroke-width="0.0" stroke-dasharray="none" opacity="1.0" fill="none"/><g id="ProcessOnG1112" transform="matrix(1.0,0.0,0.0,1.0,0.0,11.875)"><text id="ProcessOnText1113" fill="#ff0000" font-size="13" x="79.0" y="13.325" font-family="微软雅黑" font-weight="normal" font-style="normal" text-decoration="none" family="微软雅黑" text-anchor="middle" size="13">TS流</text></g></g><g id="ProcessOnG1114" transform="matrix(6.123233995736766E-17,1.0,-1.0,6.123233995736766E-17,546.9999999999999,146.00000000000023)" opacity="1.0"><path id="ProcessOnPath1115" d="M18.0 0.0Q9.0 0.0 9.0 9.0L9.0 53.49999999999997Q9.0 62.49999999999997 0.0 62.49999999999997Q9.0 62.49999999999997 9.0 71.49999999999997L9.0 115.99999999999994Q9.0 124.99999999999994 18.0 124.99999999999994" stroke="#323232" stroke-width="2.0" stroke-dasharray="none" opacity="1.0" fill="none"/><path id="ProcessOnPath1116" d="M290.9999999999998 124.99999999999994Q299.9999999999998 124.99999999999994 299.9999999999998 115.99999999999994L299.9999999999998 71.49999999999997Q299.9999999999998 62.49999999999997 308.9999999999998 62.49999999999997Q299.9999999999998 62.49999999999997 299.9999999999998 53.49999999999997L299.9999999999998 9.0Q299.9999999999998 0.0 290.9999999999998 0.0" stroke="#323232" stroke-width="2.0" stroke-dasharray="none" opacity="1.0" fill="none"/><path id="ProcessOnPath1117" d="M0.0 0.0L308.9999999999998 0.0L308.9999999999998 124.99999999999994L0.0 124.99999999999994Z" stroke="none" stroke-width="0.0" stroke-dasharray="none" opacity="1.0" fill="none"/></g><g id="ProcessOnG1118" transform="matrix(1.0,0.0,0.0,1.0,398.50000000000006,80.0)" opacity="1.0"><path id="ProcessOnPath1119" d="M0.0 0.0L160.0 0.0L160.0 40.0L0.0 40.0Z" stroke="none" stroke-width="0.0" stroke-dasharray="none" opacity="1.0" fill="none"/><g id="ProcessOnG1120" transform="matrix(1.0,0.0,0.0,1.0,0.0,11.875)"><text id="ProcessOnText1121" fill="#000000" font-size="13" x="79.0" y="13.325" font-family="微软雅黑" font-weight="normal" font-style="normal" text-decoration="none" family="微软雅黑" text-anchor="middle" size="13">第一次打包</text></g></g><g id="ProcessOnG1122" transform="matrix(1.0,0.0,0.0,1.0,641.0000000000001,80.0)" opacity="1.0"><path id="ProcessOnPath1123" d="M0.0 0.0L160.0 0.0L160.0 40.0L0.0 40.0Z" stroke="none" stroke-width="0.0" stroke-dasharray="none" opacity="1.0" fill="none"/><g id="ProcessOnG1124" transform="matrix(1.0,0.0,0.0,1.0,0.0,11.875)"><text id="ProcessOnText1125" fill="#000000" font-size="13" x="79.0" y="13.325" font-family="微软雅黑" font-weight="normal" font-style="normal" text-decoration="none" family="微软雅黑" text-anchor="middle" size="13">第二次打包</text></g></g><g id="ProcessOnG1126" transform="matrix(1.0,0.0,0.0,1.0,259.0,123.0)" opacity="1.0"><path id="ProcessOnPath1127" d="M0.0 0.0L160.0 0.0L160.0 40.0L0.0 40.0Z" stroke="none" stroke-width="0.0" stroke-dasharray="none" opacity="1.0" fill="none"/><g id="ProcessOnG1128" transform="matrix(1.0,0.0,0.0,1.0,0.0,11.875)"><text id="ProcessOnText1129" fill="#ff0000" font-size="13" x="79.0" y="13.325" font-family="微软雅黑" font-weight="normal" font-style="normal" text-decoration="none" family="微软雅黑" text-anchor="middle" size="13">ES流</text></g></g><g id="ProcessOnG1130" transform="matrix(1.0,0.0,0.0,1.0,440.49999999999994,389.0)" opacity="1.0"><path id="ProcessOnPath1131" d="M0.0 0.0L88.0 0.0L88.0 42.0L0.0 42.0Z" stroke="#323232" stroke-width="2.0" stroke-dasharray="none" opacity="1.0" fill="#ffffff"/><g id="ProcessOnG1132" transform="matrix(1.0,0.0,0.0,1.0,10.0,12.875)"><text id="ProcessOnText1133" fill="#000000" font-size="13" x="33.0" y="13.325" font-family="微软雅黑" font-weight="normal" font-style="normal" text-decoration="none" family="微软雅黑" text-anchor="middle" size="13">系统时钟n</text></g></g><g id="ProcessOnG1134"><path id="ProcessOnPath1135" d="M528.5 410.0L717.0 410.0L717.0 409.0" stroke="#0000ff" stroke-width="2.0" stroke-dasharray="none" fill="none" marker-end="url(#ProcessOnMarker1136)"/><g id="ProcessOnG1138" transform="matrix(1.0,0.0,0.0,1.0,623.25,401.875)"><path id="ProcessOnPath1139" d="M0 0H78.0V16.25H0Z" fill="#fff" transform="matrix(1.0,0.0,0.0,1.0,-39.0,0.0)"/><text id="ProcessOnText1140" fill="#000000" font-size="13" x="0.0" y="13.325" font-family="微软雅黑" font-weight="normal" font-style="normal" text-decoration="none" family="微软雅黑" text-anchor="middle" size="13">节目时钟基准</text></g></g><g id="ProcessOnG1141"><path id="ProcessOnPath1142" d="M339.0 228.3047648709625L339.0 228.5L339.0 228.5L339.0 228.6952351290375" stroke="#323232" stroke-width="2.0" stroke-dasharray="2.0 3.0" fill="none" marker-start="url(#ProcessOnMarker1143)" marker-end="url(#ProcessOnMarker1145)"/></g><g id="ProcessOnG1147"><path id="ProcessOnPath1148" d="M339.0 247.0L339.0 229.0L264.75 229.0L264.75 410.0L431.49999999999994 410.0" stroke="#323232" stroke-width="2.0" stroke-dasharray="none" fill="none" marker-end="url(#ProcessOnMarker1149)"/></g><g id="ProcessOnG1151" transform="matrix(1.0,0.0,0.0,1.0,451.0,572.5)" opacity="1.0"><path id="ProcessOnPath1152" d="M0.0 0.0L731.0 0.0L731.0 40.5L0.0 40.5Z" stroke="#323232" stroke-width="2.0" stroke-dasharray="none" opacity="1.0" fill="#ffffff"/><g id="ProcessOnG1153" transform="matrix(1.0,0.0,0.0,1.0,10.0,12.125)"><text id="ProcessOnText1154" fill="#000000" font-size="13" x="354.5" y="13.325" font-family="微软雅黑" font-weight="normal" font-style="normal" text-decoration="none" family="微软雅黑" text-anchor="middle" size="13">Packate Date (184Byte)</text></g></g><g id="ProcessOnG1155"><path id="ProcessOnPath1156" d="M1043.0 346.0L1174.5220466758558 579.4752878940101" stroke="#323232" stroke-width="2.0" stroke-dasharray="10.0 4.0 2.0 4.0" fill="none" marker-end="url(#ProcessOnMarker1157)"/></g><g id="ProcessOnG1159" transform="matrix(1.0,0.0,0.0,1.0,451.0,572.5)" opacity="1.0"><path id="ProcessOnPath1160" d="M0.0 0.0L98.0 0.0L98.0 40.5L0.0 40.5Z" stroke="#323232" stroke-width="2.0" stroke-dasharray="none" opacity="1.0" fill="#ffffff"/><g id="ProcessOnG1161" transform="matrix(1.0,0.0,0.0,1.0,10.0,12.125)"><text id="ProcessOnText1162" fill="#000000" font-size="13" x="38.0" y="13.325" font-family="微软雅黑" font-weight="normal" font-style="normal" text-decoration="none" family="微软雅黑" text-anchor="middle" size="13">Head(4Byte)</text></g></g><g id="ProcessOnG1163"><path id="ProcessOnPath1164" d="M991.0 346.0L464.8578544241653 586.4177304089578" stroke="#323232" stroke-width="2.0" stroke-dasharray="10.0 4.0 2.0 4.0" fill="none" marker-end="url(#ProcessOnMarker1165)"/></g><g id="ProcessOnG1167" transform="matrix(1.0,0.0,0.0,1.0,786.0000000000001,722.0)" opacity="1.0"><path id="ProcessOnPath1168" d="M0.0 0.0L395.9999999999999 0.0L395.9999999999999 46.0L0.0 46.0Z" stroke="#323232" stroke-width="2.0" stroke-dasharray="none" opacity="1.0" fill="#ffffff"/><g id="ProcessOnG1169" transform="matrix(1.0,0.0,0.0,1.0,10.0,14.875)"><text id="ProcessOnText1170" fill="#000000" font-size="13" x="186.99999999999994" y="13.325" font-family="微软雅黑" font-weight="normal" font-style="normal" text-decoration="none" family="微软雅黑" text-anchor="middle" size="13">Date(h264)</text></g></g><g id="ProcessOnG1171" transform="matrix(1.0,0.0,0.0,1.0,781.0,722.0)" opacity="1.0"><path id="ProcessOnPath1172" d="M0.0 0.0L98.0 0.0L98.0 46.0L0.0 46.0Z" stroke="#323232" stroke-width="2.0" stroke-dasharray="none" opacity="1.0" fill="#ffffff"/><g id="ProcessOnG1173" transform="matrix(1.0,0.0,0.0,1.0,10.0,14.875)"><text id="ProcessOnText1174" fill="#000000" font-size="13" x="38.0" y="13.325" font-family="微软雅黑" font-weight="normal" font-style="normal" text-decoration="none" family="微软雅黑" text-anchor="middle" size="13">PES Head</text></g></g><g id="ProcessOnG1175" transform="matrix(1.0,0.0,0.0,1.0,1198.0,558.0)" opacity="1.0"><path id="ProcessOnPath1176" d="M0.0 61.0Q9.0 61.0 9.0 54.9L9.0 36.6Q9.0 30.5 22.0 30.5Q9.0 30.5 9.0 24.4L9.0 6.1000000000000005Q9.0 0.0 0.0 0.0" stroke="#323232" stroke-width="2.0" stroke-dasharray="none" opacity="1.0" fill="none"/><path id="ProcessOnPath1177" d="M0.0 0.0L104.0 0.0L104.0 61.0L0.0 61.0Z" stroke="none" stroke-width="0.0" stroke-dasharray="none" opacity="1.0" fill="none"/></g><g id="ProcessOnG1178" transform="matrix(1.0,0.0,0.0,1.0,1185.0,568.5)" opacity="1.0"><path id="ProcessOnPath1179" d="M0.0 0.0L160.0 0.0L160.0 40.0L0.0 40.0Z" stroke="none" stroke-width="0.0" stroke-dasharray="none" opacity="1.0" fill="none"/><g id="ProcessOnG1180" transform="matrix(1.0,0.0,0.0,1.0,0.0,11.875)"><text id="ProcessOnText1181" fill="#000000" font-size="13" x="79.0" y="13.325" font-family="微软雅黑" font-weight="normal" font-style="normal" text-decoration="none" family="微软雅黑" text-anchor="middle" size="13">第二次打包</text></g></g><g id="ProcessOnG1182" transform="matrix(1.0,0.0,0.0,1.0,1198.0,706.0)" opacity="1.0"><path id="ProcessOnPath1183" d="M0.0 72.0Q9.0 72.0 9.0 64.8L9.0 43.2Q9.0 36.0 22.0 36.0Q9.0 36.0 9.0 28.8L9.0 7.2Q9.0 0.0 0.0 0.0" stroke="#323232" stroke-width="2.0" stroke-dasharray="none" opacity="1.0" fill="none"/><path id="ProcessOnPath1184" d="M0.0 0.0L91.0 0.0L91.0 72.0L0.0 72.0Z" stroke="none" stroke-width="0.0" stroke-dasharray="none" opacity="1.0" fill="none"/></g><g id="ProcessOnG1185" transform="matrix(1.0,0.0,0.0,1.0,1182.0,722.0)" opacity="1.0"><path id="ProcessOnPath1186" d="M0.0 0.0L160.0 0.0L160.0 40.0L0.0 40.0Z" stroke="none" stroke-width="0.0" stroke-dasharray="none" opacity="1.0" fill="none"/><g id="ProcessOnG1187" transform="matrix(1.0,0.0,0.0,1.0,0.0,11.875)"><text id="ProcessOnText1188" fill="#000000" font-size="13" x="79.0" y="13.325" font-family="微软雅黑" font-weight="normal" font-style="normal" text-decoration="none" family="微软雅黑" text-anchor="middle" size="13">第一次打包</text></g></g><g id="ProcessOnG1189" transform="matrix(1.0,0.0,0.0,1.0,255.01171875,814.26171875)" opacity="1.0"><path id="ProcessOnPath1190" d="M0.0 0.0L1065.98828125 0.0L1081.98828125 16.0L1081.98828125 137.5L0.0 137.5L0.0 0.0Z" stroke="none" stroke-width="0.0" stroke-dasharray="none" opacity="1.0" fill="#ffffaa"/><path id="ProcessOnPath1191" d="M1065.98828125 0.0L1065.98828125 16.0L1081.98828125 16.0Z" stroke="none" stroke-width="0.0" stroke-dasharray="none" opacity="1.0" fill="#cdcd78"/><path id="ProcessOnPath1192" d="M0.0 0.0L1065.98828125 0.0L1081.98828125 16.0L1081.98828125 137.5L0.0 137.5L0.0 0.0Z" stroke="none" stroke-width="0.0" stroke-dasharray="none" opacity="1.0" fill="none"/><g id="ProcessOnG1193" transform="matrix(1.0,0.0,0.0,1.0,10.0,28.125)"><text id="ProcessOnText1194" fill="#000000" font-size="13" x="0.0" y="13.325" font-family="微软雅黑" font-weight="normal" font-style="normal" text-decoration="none" family="微软雅黑" text-anchor="start" size="13">1. PES流是对原始ES流进行的第一层封装，PES流的基本单位是PES包，由包头和payload组成，ES流即音视频裸流，是从编码器里面出来的原始视频音频流，ES流只包含一种内容，里</text><text id="ProcessOnText1195" fill="#000000" font-size="13" x="0.0" y="29.575" font-family="微软雅黑" font-weight="normal" font-style="normal" text-decoration="none" family="微软雅黑" text-anchor="start" size="13">面是视频或者音频；封装时不对其进行改变，只在前面添加头部，如私有头。一个PES包的最大长度为65535字节，因此一帧数据有可能被分为多个PES。</text><text id="ProcessOnText1196" fill="#000000" font-size="13" x="0.0" y="45.825" font-family="微软雅黑" font-weight="normal" font-style="normal" text-decoration="none" family="微软雅黑" text-anchor="start" size="13"></text><text id="ProcessOnText1197" fill="#000000" font-size="13" x="0.0" y="62.075" font-family="微软雅黑" font-weight="normal" font-style="normal" text-decoration="none" family="微软雅黑" text-anchor="start" size="13">2. TS流主要由header 和 payload 组成，其中header 部分相对来说比较简单一些，payload部分成分比较复杂，其中payload 可以是PSI(其中包括PAT , PMT)，可以是PES(从摄像头采集</text><text id="ProcessOnText1198" fill="#000000" font-size="13" x="0.0" y="78.325" font-family="微软雅黑" font-weight="normal" font-style="normal" text-decoration="none" family="微软雅黑" text-anchor="start" size="13">的数据经过压缩算法后的数据被成为ES , 一般是在一帧的ES数据前加上点头信息，其中最主要的是PTS和DTS信息，就形成了PES)，可以是一些自适应数据（0xFF）。</text></g></g><g id="ProcessOnG1199" transform="matrix(1.0,0.0,0.0,1.0,985.0,572.5)" opacity="1.0"><path id="ProcessOnPath1200" d="M0.0 0.0L64.0 0.0L64.0 40.5L0.0 40.5Z" stroke="#323232" stroke-width="2.0" stroke-dasharray="10.0 4.0 2.0 4.0" opacity="1.0" fill="#ffffff"/><g id="ProcessOnG1201" transform="matrix(1.0,0.0,0.0,1.0,10.0,12.125)"><text id="ProcessOnText1202" fill="#000000" font-size="13" x="21.0" y="13.325" font-family="微软雅黑" font-weight="normal" font-style="normal" text-decoration="none" family="微软雅黑" text-anchor="middle" size="13">PES</text></g></g><g id="ProcessOnG1203"><path id="ProcessOnPath1204" d="M985.0 592.75L793.2103682306088 735.8871148867148" stroke="#323232" stroke-width="2.0" stroke-dasharray="10.0 4.0 2.0 4.0" fill="none" marker-end="url(#ProcessOnMarker1205)"/></g><g id="ProcessOnG1207"><path id="ProcessOnPath1208" d="M1049.0 592.75L1171.9763197402865 733.5255239132227" stroke="#323232" stroke-width="2.0" stroke-dasharray="10.0 4.0 2.0 4.0" fill="none" marker-end="url(#ProcessOnMarker1209)"/></g></g></g></svg>